<?xml version="1.0" encoding="UTF-8" standalone="no"?>
<!-- Created with Inkscape (http://www.inkscape.org/) -->

<svg
   width="132.29166mm"
   height="132.29167mm"
   viewBox="0 0 132.29166 132.29167"
   version="1.1"
   id="svg1"
   xml:space="preserve"
   sodipodi:docname="shelter bank.svg"
   xmlns:inkscape="http://www.inkscape.org/namespaces/inkscape"
   xmlns:sodipodi="http://sodipodi.sourceforge.net/DTD/sodipodi-0.dtd"
   xmlns="http://www.w3.org/2000/svg"
   xmlns:svg="http://www.w3.org/2000/svg"><sodipodi:namedview
     id="namedview1"
     pagecolor="#505050"
     bordercolor="#eeeeee"
     borderopacity="1"
     inkscape:showpageshadow="0"
     inkscape:pageopacity="0"
     inkscape:pagecheckerboard="0"
     inkscape:deskcolor="#505050"
     inkscape:document-units="mm"><inkscape:page
       x="0"
       y="0"
       width="132.29166"
       height="132.29167"
       id="page2"
       margin="0"
       bleed="0"
       inkscape:export-filename="ShelterBank.svg"
       inkscape:export-xdpi="96"
       inkscape:export-ydpi="96" /></sodipodi:namedview><defs
     id="defs1"><clipPath
       clipPathUnits="userSpaceOnUse"
       id="clipPath2"><path
         d="M 0,0 H 1562.5 V 1562.5 H 0 Z"
         transform="scale(0.31999999)"
         clip-rule="evenodd"
         id="path2" /></clipPath><clipPath
       clipPathUnits="userSpaceOnUse"
       id="clipPath5"><path
         d="M 201.86195,17.231956 H 1360.6381 c 39.6954,0 71.875,32.179535 71.875,71.875 V 1247.8831 c 0,39.6954 -32.1796,71.875 -71.875,71.875 H 201.86195 c -39.69546,0 -71.875,-32.1796 -71.875,-71.875 V 89.106956 c 0,-39.695465 32.17954,-71.875 71.875,-71.875 z"
         transform="matrix(0.19654116,0,0,0.19654116,-25.547787,-3.3867887)"
         id="path5" /></clipPath><clipPath
       clipPathUnits="userSpaceOnUse"
       id="clipPath16"><path
         d="M 0,0 H 1562.5 V 1562.5 H 0 Z"
         transform="matrix(0.26312824,0,0,0.26312824,-36.725677,-392.80364)"
         clip-rule="evenodd"
         id="path16" /></clipPath><clipPath
       clipPathUnits="userSpaceOnUse"
       id="clipPath5-0"><path
         d="M 201.86195,17.231956 H 1360.6381 c 39.6954,0 71.875,32.179535 71.875,71.875 V 1247.8831 c 0,39.6954 -32.1796,71.875 -71.875,71.875 H 201.86195 c -39.69546,0 -71.875,-32.1796 -71.875,-71.875 V 89.106956 c 0,-39.695465 32.17954,-71.875 71.875,-71.875 z"
         transform="matrix(0.19654116,0,0,0.19654116,-25.547787,-3.3867887)"
         id="path5-9" /></clipPath><clipPath
       clipPathUnits="userSpaceOnUse"
       id="clipPath14-3"><path
         d="M 192.57271,301.7485 H 1373.5296 V 1395.8703 H 192.57271 Z"
         transform="matrix(0.84965017,0,0,0.84965017,-163.76333,-256.38066)"
         clip-rule="evenodd"
         id="path14-6" /></clipPath></defs><g
     id="g1"
     inkscape:label="1"
     transform="matrix(0.26458333,0,0,0.26458334,1.234112e-5,0)"><path
       id="path1"
       d="M 0,0 H 500 V 500 H 0 Z"
       style="display:none;fill:#ffffff;fill-opacity:1;fill-rule:nonzero;stroke:none"
       clip-path="url(#clipPath2)"
       inkscape:label="fundo branco" /><g
       id="g61"
       style="display:inline"
       transform="matrix(1.1962433,0,0,1.1962433,-48.753338,-4.7721663)"><path
         id="path9"
         clip-path="url(#clipPath5)"
         style="display:inline;fill:#212121;fill-opacity:1;fill-rule:nonzero;stroke:none"
         inkscape:label="fundo amarelo"
         d="M -7.5784041e-5,-3.4023975e-4 V 255.99981 H 43.405965 l -11.316952,-93.41944 -1.064038,-8.76662 7.47106,4.7192 44.274546,27.99008 41.198789,-85.14944 3.77032,-7.818944 3.77032,7.818944 41.19879,85.14944 44.27455,-27.99008 7.47106,-4.7192 -1.06404,8.76662 -11.32055,93.41944 h 43.93026 V -3.4023975e-4 Z M 127.73969,55.918644 c 4.21002,0 8.02682,1.712176 10.77954,4.464882 2.75271,2.775838 4.46488,6.569513 4.46488,10.779534 0,4.210021 -1.71219,8.026828 -4.46488,10.779535 -2.75272,2.752706 -6.56952,4.464881 -10.77954,4.464881 -4.18689,0 -8.0037,-1.712175 -10.77953,-4.464881 -2.77584,-2.752704 -4.46489,-6.569514 -4.46489,-10.779535 0,-4.186889 1.71218,-8.004035 4.46489,-10.756742 2.77583,-2.775839 6.56951,-4.487674 10.77953,-4.487674 z m 0,8.397145 c -1.89682,0 -3.60836,0.764127 -4.83436,1.990123 l -0.024,0.02279 c -1.22599,1.225995 -1.98892,2.937533 -1.98892,4.834356 0,1.896822 0.76378,3.60836 2.01291,4.834356 v 0.02399 c 1.226,1.225996 2.93754,1.988924 4.83436,1.988924 1.89683,0 3.60836,-0.76379 4.83436,-2.012916 1.22599,-1.225996 2.01291,-2.937532 2.01291,-4.834356 -0.0231,-1.896823 -0.78692,-3.608361 -2.01291,-4.834356 -1.226,-1.225995 -2.93754,-2.012915 -4.83436,-2.012915 z m -0.0228,48.554691 -37.844734,78.18581 -3.655157,7.58742 -27.756162,57.3561 H 197.01614 l -25.09427,-51.80439 7.26353,-4.25615 24.95871,51.56087 9.83186,-81.12362 -37.58922,23.75672 -9.90143,6.26907 -36.52518,23.08495 -2.24324,1.41072 -2.24444,-1.41072 -34.142789,-21.60465 3.90947,-7.44947 32.477759,20.54182 37.84353,-23.91867 z m -100.138353,5.20503 c 4.210023,0 8.025631,1.71098 10.778335,4.46368 2.752707,2.77584 4.464882,6.56951 4.464882,10.77953 0,4.21003 -1.712175,8.02683 -4.464882,10.77954 -2.752706,2.7527 -6.568314,4.46488 -10.778335,4.46488 -4.186889,0 -8.003696,-1.71218 -10.779535,-4.46488 -2.752707,-2.75271 -4.464882,-6.56952 -4.464882,-10.77954 0,-4.18689 1.712176,-8.00403 4.464882,-10.75674 2.775839,-2.77584 6.592645,-4.48647 10.779535,-4.48647 z m 200.832113,0 c 4.21002,0 8.02564,1.71098 10.77834,4.46368 2.75271,2.77584 4.46488,6.56951 4.46488,10.77953 0,4.21003 -1.71219,8.02683 -4.46488,10.77954 -2.75272,2.7527 -6.56833,4.46488 -10.77834,4.46488 -4.18688,0 -8.0037,-1.71218 -10.77953,-4.46488 -2.75272,-2.75271 -4.46489,-6.56951 -4.46489,-10.77954 0,-4.18689 1.71219,-8.00403 4.46489,-10.75674 2.77583,-2.77584 6.59265,-4.48647 10.77953,-4.48647 z m -200.832113,8.41993 c -1.896823,0 -3.60956,0.76293 -4.835556,1.98893 l -0.02279,0.0228 c -1.225995,1.22599 -1.988924,2.93754 -1.988924,4.83436 0,1.89682 0.762588,3.60956 2.011716,4.83555 v 0.0228 c 1.225995,1.226 2.938734,1.98893 4.835556,1.98893 1.896822,0 3.60836,-0.76259 4.834356,-2.01172 1.225996,-1.24913 2.011716,-2.93874 2.011716,-4.83555 -0.02313,-1.91996 -0.76259,-3.63116 -2.011716,-4.85715 -1.225996,-1.226 -2.937532,-1.98893 -4.834356,-1.98893 z m 200.832113,0 c -1.89683,0 -3.60955,0.76293 -4.83556,1.98893 l -0.0228,0.0228 c -1.22599,1.22599 -1.98892,2.93754 -1.98892,4.83436 0,1.89682 0.76258,3.60956 2.01171,4.83555 v 0.0228 c 1.226,1.226 2.93873,1.98893 4.83556,1.98893 1.89683,0 3.58523,-0.76259 4.83436,-2.01172 1.22599,-1.22599 2.01171,-2.93874 2.01171,-4.83555 -0.0232,-1.91996 -0.76258,-3.63116 -2.01171,-4.85715 -1.226,-1.226 -2.93753,-1.98893 -4.83436,-1.98893 z"
         transform="matrix(1.6281576,0,0,1.6281576,41.59582,5.5142257)" /><path
         style="fill:#212121;fill-opacity:1"
         d="m 106.69839,280.9751 18.71497,133.79067 45.27433,-93.9007 z"
         id="path74"
         sodipodi:nodetypes="cccc" /></g><g
       id="g63"
       transform="translate(50.396026)"
       style="display:none"><path
         d="M 0,0 H 256 V 256 H 0 Z"
         style="display:inline;fill:#ffbd59;fill-opacity:1;fill-rule:nonzero;stroke:none"
         transform="matrix(1.6281576,0,0,1.6281576,-7.4961009,24)"
         clip-path="url(#clipPath5-0)"
         id="path9-5"
         inkscape:label="fundo amarelo" /><path
         id="path13-1"
         d="m 829.20001,845.5 42.5,-350.70001 -162.5,102.70001 -42.79999,27.09998 -157.89999,99.79998 -9.70001,6.09998 -9.70001,-6.09998 L 341.5,631 l 16.89999,-32.20001 140.4,88.79999 163.60003,-103.40003 -163.6,-338 -163.60001,338 L 319.39999,617 l -132.5,273.79999 h 312 312.00003 L 689.90002,641 721.30005,622.59998 Z M 498.89999,0 c 18.19999,0 34.69999,7.4000001 46.60001,19.299999 11.90002,12 19.29999,28.399998 19.29999,46.599995 0,18.199997 -7.40003,34.699996 -19.29999,46.599996 -11.90002,11.9 -28.40002,19.3 -46.60001,19.3 -18.1,0 -34.6,-7.4 -46.6,-19.3 C 440.29999,100.6 433,84.099998 433,65.900002 c 0,-18.099999 7.39999,-34.599999 19.29999,-46.5 C 464.29999,7.4000001 480.70001,0 498.89999,0 Z m 20.9,45 c -5.29999,-5.299999 -12.70001,-8.700001 -20.9,-8.700001 -8.20001,0 -15.6,3.299999 -20.89999,8.600003 l -0.10001,0.1 c -5.29998,5.299999 -8.6,12.700001 -8.6,20.900002 0,8.199996 3.29999,15.599998 8.70001,20.900001 v 0.1 c 5.29999,5.3 12.70001,8.599995 20.89999,8.599995 8.20002,0 15.60001,-3.300003 20.9,-8.699997 C 525.09998,81.5 528.5,74.100006 528.5,65.900002 528.40002,57.700001 525.09998,50.299999 519.79999,45 Z m 414.29999,223.70001 c 18.20001,0 34.70001,7.4 46.59997,19.29999 11.90003,12 19.29999,28.39999 19.29999,46.60001 0,18.20001 -7.40003,34.70001 -19.29999,46.6 C 968.79993,393.10001 952.29993,400.5 934.09998,400.5 916,400.5 899.5,393.10001 887.5,381.20001 c -11.90002,-11.89999 -19.29999,-28.39999 -19.29999,-46.6 0,-18.10001 7.40003,-34.60001 19.29999,-46.5 12,-12 28.5,-19.4 46.59998,-19.4 z m 20.90002,45 c -5.29999,-5.29999 -12.70001,-8.6 -20.90002,-8.6 -8.20002,0 -15.59998,3.29998 -20.90003,8.6 l -0.1,0.10001 c -5.29999,5.29999 -8.59998,12.70001 -8.59998,20.89999 0,8.20001 3.29999,15.60001 8.70001,20.9 v 0.1 c 5.29999,5.29999 12.70001,8.60001 20.90003,8.60001 8.20001,0 15.5,-3.29999 20.90002,-8.70001 5.29999,-5.29999 8.70001,-12.70002 8.70001,-20.9 -0.10009,-8.30002 -3.30005,-15.70001 -8.70007,-21 z m -889.099998,-45 c 18.200004,0 34.700008,7.4 46.599998,19.29999 11.9,12 19.3,28.39999 19.3,46.60001 0,18.20001 -7.4,34.70001 -19.3,46.6 C 100.6,393.10001 84.099998,400.5 65.900002,400.5 47.800003,400.5 31.300003,393.10001 19.300003,381.20001 7.4000001,369.29999 0,352.79999 0,334.60001 0,316.5 7.4000001,300 19.299999,288.10001 c 12,-12 28.5,-19.4 46.600003,-19.4 z m 20.900001,45 c -5.300003,-5.29999 -12.699997,-8.6 -20.900001,-8.6 -8.200001,0 -15.599999,3.29998 -20.900002,8.6 l -0.1,0.10001 c -5.3,5.29999 -8.599999,12.70001 -8.599999,20.89999 0,8.20001 3.299999,15.60001 8.700001,20.9 v 0.1 C 50.300001,361 57.700003,364.30002 65.9,364.30002 c 8.199996,0 15.599998,-3.29999 20.900001,-8.70001 5.300003,-5.40003 8.699997,-12.70002 8.699997,-20.9 -0.1,-8.30002 -3.300003,-15.70001 -8.699997,-21 z M 288.5,597.5 168.5,845.5 126,494.79999 Z M 139.3,906 85.400002,461.10001 l -4.599999,-37.9 32.300007,20.4 L 304.5,564.59998 482.60001,196.49997 l 16.29998,-33.8 16.30002,33.8 178.10004,368.10001 191.40002,-121 32.29999,-20.4 -4.59997,37.9 -53.90003,444.79998 -3,21.29999 h -356.60007 -356.5 z"
         style="display:inline;fill:#ffffff;fill-opacity:1;fill-rule:evenodd;stroke:none"
         transform="matrix(0.37662558,0,0,0.37662558,12.585539,115.04529)"
         clip-path="url(#clipPath14-3)"
         inkscape:label="coroa" /></g><path
       id="path15"
       d="m 24.912885,-8.9935722 c 0,2.8619051 -0.976452,5.1617076 -2.929357,6.8994075 -1.946481,1.73127594 -4.75057,2.59530788 -8.415479,2.59530788 -2.441131,0 -4.6349368,-0.44647004 -6.5782056,-1.3361981 C 5.0433625,-1.734419 3.2446343,-2.9678327 1.5936587,-4.5352958 l 2.9422055,-2.9807496 c 1.2077175,1.1755973 2.5953078,2.1809579 4.162771,3.0192938 1.5674628,0.8415478 3.2891028,1.2591097 5.1649198,1.2591097 2.071749,0 3.741997,-0.4753782 5.010743,-1.4261345 1.275169,-0.9507563 1.91436,-2.2773184 1.91436,-3.9828982 0,-1.1820214 -0.308353,-2.1135054 -0.92506,-2.8008764 -0.616707,-0.68416 -1.512859,-1.271958 -2.685244,-1.760184 -1.175597,-0.488227 -2.617792,-0.995725 -4.329796,-1.528919 -1.962541,-0.648827 -3.7195129,-1.32335 -5.2677039,-2.017146 -1.5514031,-0.700219 -2.7687567,-1.625279 -3.6488487,-2.77518 -0.883304,-1.14669 -1.32335,-2.701305 -1.32335,-4.663846 0,-2.046053 0.4753781,-3.719513 1.4261345,-5.023591 0.9507563,-1.300865 2.2227141,-2.26447 3.8158734,-2.890813 1.5995833,-0.632767 3.3790397,-0.950756 5.3319447,-0.950756 2.158473,0 4.088894,0.404714 5.794474,1.207717 1.712004,0.79658 3.253771,1.808365 4.625301,3.032142 l -2.890813,2.903662 c -1.072813,-0.976453 -2.235562,-1.776245 -3.494672,-2.402587 -1.25911,-0.632767 -2.672396,-0.950757 -4.239859,-0.950757 -1.509647,0 -2.720577,0.231265 -3.6360009,0.693795 -0.9090002,0.456107 -1.5674632,1.047117 -1.978601,1.773033 -0.4047139,0.729127 -0.6038588,1.50001 -0.6038588,2.31265 0,1.063177 0.3083534,1.920785 0.9250602,2.569612 0.6167068,0.642403 1.4967989,1.204505 2.6467005,1.683095 1.146689,0.472167 2.534279,0.986089 4.162771,1.541768 1.506435,0.507498 2.890813,1.024632 4.149923,1.554615 1.265533,0.533194 2.367254,1.143477 3.301951,1.837272 0.94112,0.687371 1.670247,1.538555 2.18417,2.556764 0.520346,1.02142 0.783731,2.270894 0.783731,3.7516328 z m 14.232437,-7.2591528 c 0,-2.466828 0.440046,-4.71845 1.32335,-6.758079 0.880092,-2.046054 2.084598,-3.819086 3.610305,-5.319096 1.522495,-1.496799 3.292315,-2.649913 5.306248,-3.456128 2.020357,-0.81264 4.165983,-1.220566 6.436877,-1.220566 2.380103,0 4.577121,0.43041 6.591054,1.284806 2.010722,0.847972 3.770906,2.036417 5.280553,3.558912 1.51607,1.525707 2.691668,3.301951 3.533216,5.331945 0.838336,2.029993 1.259109,4.223799 1.259109,6.578206 0,2.434707 -0.443258,4.673481 -1.32335,6.7195344 -0.873668,2.0492653 -2.081385,3.8222974 -3.623152,5.3190963 -1.541767,1.4903748 -3.314799,2.6531241 -5.319096,3.48182385 -2.004298,0.82227575 -4.137075,1.23341363 -6.398334,1.23341363 -2.270894,0 -4.41652,-0.40471385 -6.436877,-1.20771751 C 47.371292,-1.519214 45.601472,-2.6755393 44.078977,-4.1755502 42.55327,-5.672349 41.348764,-7.4421691 40.468672,-9.4817984 c -0.883304,-2.0460536 -1.32335,-4.3040996 -1.32335,-6.7709266 z m 29.190789,-0.03854 c 0,-1.933633 -0.330837,-3.690605 -0.9893,-5.267705 -0.661675,-1.583523 -1.564251,-2.958265 -2.71094,-4.124226 -1.149902,-1.16275 -2.479676,-2.049266 -3.995747,-2.659549 -1.509647,-0.616706 -3.102806,-0.92506 -4.779477,-0.92506 -1.824425,0 -3.507521,0.343686 -5.049288,1.027845 -1.535343,0.687371 -2.861905,1.631703 -3.982898,2.839421 -1.124205,1.201293 -1.991449,2.58246 -2.608156,4.149923 -0.610282,1.567463 -0.912212,3.247347 -0.912212,5.036439 0,1.85012 0.324414,3.558912 0.976453,5.126375 0.658463,1.5674634 1.561039,2.9422057 2.71094,4.1242271 1.146689,1.1755974 2.482887,2.0910215 4.008594,2.7494846 1.532131,0.6520389 3.163835,0.9764524 4.895111,0.9764524 2.354406,0 4.471124,-0.5653146 6.346941,-1.6959437 1.875816,-1.1370532 3.356555,-2.6852443 4.445428,-4.6381492 1.095297,-1.9593292 1.644551,-4.2013152 1.644551,-6.7195342 z m 25.2368,-16.214251 V -3.7772604 H 107.34603 V 6.8893794e-5 H 89.422988 V -32.50552 Z m 27.051589,16.252795 c 0,-2.466828 0.44004,-4.71845 1.32335,-6.758079 0.88009,-2.046054 2.0846,-3.819086 3.6103,-5.319096 1.5225,-1.496799 3.29232,-2.649913 5.30625,-3.456128 2.02036,-0.81264 4.16598,-1.220566 6.43688,-1.220566 2.3801,0 4.57712,0.43041 6.59105,1.284806 2.01072,0.847972 3.77091,2.036417 5.28055,3.558912 1.51608,1.525707 2.69167,3.301951 3.53322,5.331945 0.83834,2.029993 1.25911,4.223799 1.25911,6.578206 0,2.434707 -0.44326,4.673481 -1.32335,6.7195344 -0.87367,2.0492653 -2.08139,3.8222974 -3.62315,5.3190963 -1.54177,1.4903748 -3.3148,2.6531241 -5.3191,3.48182385 -2.0043,0.82227575 -4.13707,1.23341363 -6.39833,1.23341363 -2.2709,0 -4.41652,-0.40471385 -6.43688,-1.20771751 -2.01393,-0.81263967 -3.78375,-1.96896497 -5.30625,-3.46897587 -1.5257,-1.4967988 -2.73021,-3.2666189 -3.6103,-5.3062482 -0.88331,-2.0460536 -1.32335,-4.3040996 -1.32335,-6.7709266 z m 29.19079,-0.03854 c 0,-1.933633 -0.33084,-3.690605 -0.9893,-5.267705 -0.66168,-1.583523 -1.56425,-2.958265 -2.71094,-4.124226 -1.1499,-1.16275 -2.47968,-2.049266 -3.99575,-2.659549 -1.50965,-0.616706 -3.10281,-0.92506 -4.77948,-0.92506 -1.82442,0 -3.50752,0.343686 -5.04928,1.027845 -1.53535,0.687371 -2.86191,1.631703 -3.9829,2.839421 -1.12421,1.201293 -1.99145,2.58246 -2.60816,4.149923 -0.61028,1.567463 -0.91221,3.247347 -0.91221,5.036439 0,1.85012 0.32441,3.558912 0.97645,5.126375 0.65846,1.5674634 1.56104,2.9422057 2.71094,4.1242271 1.14669,1.1755974 2.48289,2.0910215 4.0086,2.7494846 1.53213,0.6520389 3.16383,0.9764524 4.89511,0.9764524 2.3544,0 4.47112,-0.5653146 6.34694,-1.6959437 1.87581,-1.1370532 3.35655,-2.6852443 4.44543,-4.6381492 1.09529,-1.9593292 1.64455,-4.2013152 1.64455,-6.7195342 z M 195.09506,6.8893794e-5 V -32.50552 h 8.9037 c 3.18632,0 5.55358,0.626343 7.10498,1.875817 1.55783,1.24305 2.33835,3.208803 2.33835,5.897259 0,2.039629 -0.5075,3.642425 -1.51607,4.805174 -1.00215,1.165961 -2.36084,2.013933 -4.07284,2.543916 0.70022,0.163812 1.45826,0.449682 2.27411,0.860819 0.81264,0.404714 1.58673,0.944333 2.3255,1.618856 0.74518,0.668099 1.35225,1.500011 1.82442,2.492523 0.47859,0.995725 0.71949,2.164898 0.71949,3.5075202 0,2.8876012 -0.97003,5.0942553 -2.90366,6.6167503 -1.92721,1.52570692 -4.47112,2.286954393794 -7.63175,2.286954393794 z M 202.61117,-15.661715 h -3.36619 v 11.961543 h 5.04929 c 1.9529,0 3.50109,-0.4175619 4.651,-1.2591098 1.14668,-0.8383358 1.75054,-2.2516222 1.81157,-4.2398593 -0.0257,-1.5417669 -0.42398,-2.7880289 -1.19487,-3.7387849 -0.77088,-0.950757 -1.76661,-1.638128 -2.98075,-2.068538 -1.21735,-0.436834 -2.5407,-0.655251 -3.97005,-0.655251 z m -3.36619,-3.610304 h 4.23986 c 0.41756,0 0.95076,-0.0546 1.59316,-0.167025 0.64883,-0.118844 1.30087,-0.346897 1.9529,-0.680947 0.65847,-0.33405 1.21093,-0.8287 1.6574,-1.490375 0.4529,-0.658463 0.68095,-1.519283 0.68095,-2.58246 0,-1.284805 -0.30193,-2.254834 -0.89936,-2.916509 -0.60065,-0.658463 -1.38117,-1.108145 -2.33835,-1.349046 -0.95076,-0.237689 -1.95933,-0.359746 -3.01929,-0.359746 h -3.86727 z M 227.97645,6.8893794e-5 239.02578,-32.50552 h 4.9979 L 254.55909,6.8893794e-5 h -3.85442 L 247.5055,-9.7387596 H 235.24845 L 231.92081,6.8893794e-5 Z M 241.50546,-28.13718 l -5.04929,14.82666 h 9.88016 z M 274.18128,6.8893794e-5 h -4.03429 V -32.50552 h 4.61246 l 13.65748,24.0644144 V -32.50552 h 4.03429 V 6.8893794e-5 h -3.32764 L 274.18128,-25.413391 Z m 41.19409,0 h -4.14992 V -32.50552 h 4.14992 v 15.75172 l 15.75172,-15.75172 h 5.33195 L 323.40541,-19.4005 336.79309,6.8893794e-5 h -4.94651 L 320.50175,-16.548231 l -5.12638,4.869415 z m 0,0"
       style="display:none;fill:#000000;fill-opacity:1;fill-rule:nonzero;stroke:none"
       aria-label="SOLO BANK"
       transform="matrix(1.216137,0,0,1.216137,44.663455,477.70304)"
       clip-path="url(#clipPath16)"
       inkscape:label="nome" /></g></svg>
